<?xml version="1.0" encoding="UTF-8"?>
<svg width="123px" height="18px" viewBox="0 0 123 18" version="1.1" xmlns="http://www.w3.org/2000/svg" xmlns:xlink="http://www.w3.org/1999/xlink">
    <!-- Generator: Sketch 42 (36781) - http://www.bohemiancoding.com/sketch -->
    <title>logo</title>
    <desc>Created with Sketch.</desc>
    <defs></defs>
    <g id="Page-1" stroke="none" stroke-width="1" fill="none" fill-rule="evenodd">
        <g id="video" transform="translate(-48.000000, -49.000000)">
            <g id="header" transform="translate(48.000000, 49.000000)">
                <g id="logo">
                    <path d="M17.0112,0 L16.9170855,0 L8.51736432,12.7911175 L0.0941145228,0 L0,0 L0,17.491327 L2.94107884,17.491327 L2.94107884,9.04965714 L8.42324979,17.6784 L8.61147884,17.6784 L14.0701212,9.04965714 L14.0701212,17.491327 L17.0112,17.491327 L17.0112,0 Z M30.3685,5.7057 L27.5450791,5.7057 L27.5450791,13.4224354 C26.9333379,14.2876451 26.1568971,15.0593187 24.8157722,15.0593187 C23.4511187,15.0593187 22.6276209,14.0070366 22.6276209,12.4870735 L22.6276209,5.7057 L19.8042,5.7057 L19.8042,12.6273778 C19.8042,15.714072 21.3100245,17.7251 24.0628599,17.7251 C25.874555,17.7251 27.0274519,17.0001946 27.6862501,16.1349848 L27.8274212,17.4912595 L30.3685,17.4912595 L30.3685,5.7057 Z M43.7798,5.7057 L40.4858,5.7057 L38.0858857,9.5173127 L35.7095,5.7057 L32.4155,5.7057 L36.1565429,11.5049635 L32.2508,17.4913 L35.5918571,17.4913 L38.0858857,13.5627667 L40.6034429,17.4913 L43.9445,17.4913 L40.0387571,11.5049635 L43.7798,5.7057 Z M56.2029,5.7057 L53.3794791,5.7057 L53.3794791,13.4224354 C52.7677379,14.2876451 51.9912971,15.0593187 50.6501722,15.0593187 C49.2855187,15.0593187 48.4620209,14.0070366 48.4620209,12.4870735 L48.4620209,5.7057 L45.6386,5.7057 L45.6386,12.6273778 C45.6386,15.714072 47.1444245,17.7251 49.8972599,17.7251 C51.708955,17.7251 52.8618519,17.0001946 53.5206501,16.1349848 L53.6618212,17.4912595 L56.2029,17.4912595 L56.2029,5.7057 Z M83.8083,0 L83.7141855,0 L75.3144643,12.7911175 L66.8912145,0 L66.7971,0 L66.7971,17.491327 L69.7381788,17.491327 L69.7381788,9.04965714 L75.2203498,17.6784 L75.4085788,17.6784 L80.8672212,9.04965714 L80.8672212,17.491327 L83.8083,17.491327 L83.8083,0 Z M97.1656,5.7057 L94.3421791,5.7057 L94.3421791,13.4224354 C93.7304379,14.2876451 92.9539971,15.0593187 91.6128722,15.0593187 C90.2482187,15.0593187 89.4247209,14.0070366 89.4247209,12.4870735 L89.4247209,5.7057 L86.6013,5.7057 L86.6013,12.6273778 C86.6013,15.714072 88.1071245,17.7251 90.8599599,17.7251 C92.671655,17.7251 93.8245519,17.0001946 94.4833501,16.1349848 L94.6245212,17.4912595 L97.1656,17.4912595 L97.1656,5.7057 Z M110.5769,5.7057 L107.2829,5.7057 L104.882986,9.5173127 L102.5066,5.7057 L99.2126,5.7057 L102.953643,11.5049635 L99.0479,17.4913 L102.388957,17.4913 L104.882986,13.5627667 L107.400543,17.4913 L110.7416,17.4913 L106.835857,11.5049635 L110.5769,5.7057 Z M123,5.7057 L120.176579,5.7057 L120.176579,13.4224354 C119.564838,14.2876451 118.788397,15.0593187 117.447272,15.0593187 C116.082619,15.0593187 115.259121,14.0070366 115.259121,12.4870735 L115.259121,5.7057 L112.4357,5.7057 L112.4357,12.6273778 C112.4357,15.714072 113.941524,17.7251 116.69436,17.7251 C118.506055,17.7251 119.658952,17.0001946 120.31775,16.1349848 L120.458921,17.4912595 L123,17.4912595 L123,5.7057 Z" id="Muxu.Muxu" fill="#000000"></path>
                    <ellipse id="dot" fill="#33CC33" cx="61.3748" cy="15.25015" rx="2.5051" ry="2.50015"></ellipse>
                </g>
            </g>
        </g>
    </g>
</svg>