<?xml version="1.0" encoding="UTF-8"?>
<svg width="102px" height="125px" viewBox="0 0 102 125" version="1.1" xmlns="http://www.w3.org/2000/svg" xmlns:xlink="http://www.w3.org/1999/xlink">
    <!-- Generator: Sketch 42 (36781) - http://www.bohemiancoding.com/sketch -->
    <title>play-button</title>
    <desc>Created with Sketch.</desc>
    <defs></defs>
    <g id="Page-1" stroke="none" stroke-width="1" fill="none" fill-rule="evenodd">
        <g id="video" transform="translate(-879.000000, -464.000000)">
            <g id="content" transform="translate(271.000000, 369.000000)">
                <g id="video" transform="translate(420.000000, 0.000000)">
                    <g id="play-button" transform="translate(188.000000, 95.000000)">
                        <path d="M19.3903809,119.366211 L19.8601074,114.757812 L24.595459,114.757812 L24.595459,115.843262 L20.8566895,115.843262 L20.5773926,118.363281 C20.7424325,118.26595 20.9550768,118.174968 21.215332,118.090332 C21.4755872,118.005696 21.7770979,117.963379 22.119873,117.963379 C22.5430522,117.963379 22.9249657,118.036376 23.265625,118.182373 C23.6062843,118.32837 23.8950997,118.535725 24.1320801,118.804443 C24.3690604,119.073162 24.5510248,119.397947 24.6779785,119.778809 C24.8049323,120.15967 24.8684082,120.584959 24.8684082,121.054688 C24.8684082,121.499026 24.8081061,121.908445 24.6875,122.282959 C24.5668939,122.657473 24.3859875,122.9812 24.1447754,123.25415 C23.9035632,123.527101 23.5999367,123.740803 23.2338867,123.895264 C22.8678367,124.049724 22.4372583,124.126953 21.9421387,124.126953 C21.569741,124.126953 21.2174496,124.075114 20.8852539,123.971436 C20.5530582,123.867757 20.2578952,123.710125 19.9997559,123.498535 C19.7416165,123.286946 19.5300301,123.020347 19.3649902,122.69873 C19.1999503,122.377114 19.0983889,122.00049 19.0603027,121.568848 L20.1711426,121.568848 C20.243083,122.097822 20.431395,122.496662 20.736084,122.765381 C21.040773,123.0341 21.4427872,123.168457 21.9421387,123.168457 C22.2214369,123.168457 22.4689931,123.119792 22.6848145,123.022461 C22.9006358,122.92513 23.0836581,122.785483 23.2338867,122.603516 C23.3841153,122.421549 23.498372,122.200441 23.5766602,121.940186 C23.6549483,121.67993 23.6940918,121.388999 23.6940918,121.067383 C23.6940918,120.779621 23.6538904,120.510906 23.5734863,120.26123 C23.4930823,120.011555 23.3745939,119.794679 23.2180176,119.610596 C23.0614413,119.426513 22.8678397,119.281576 22.637207,119.175781 C22.4065744,119.069986 22.1431493,119.01709 21.8469238,119.01709 C21.6480296,119.01709 21.4766446,119.030843 21.3327637,119.05835 C21.1888827,119.085856 21.059815,119.125 20.9455566,119.175781 C20.8312983,119.226563 20.726563,119.288981 20.6313477,119.363037 C20.5361323,119.437093 20.4356288,119.518554 20.329834,119.607422 L19.3903809,119.366211 Z M31.1081543,120.895996 L32.3903809,120.895996 L32.3903809,121.854492 L31.1081543,121.854492 L31.1081543,124 L29.9274902,124 L29.9274902,121.854492 L25.7189941,121.854492 L25.7189941,121.162598 L29.857666,114.757812 L31.1081543,114.757812 L31.1081543,120.895996 Z M27.052002,120.895996 L29.9274902,120.895996 L29.9274902,116.36377 L29.7878418,116.617676 L27.052002,120.895996 Z M40.7883301,122.178223 C40.7883301,122.051269 40.7692873,121.931723 40.7312012,121.81958 C40.693115,121.707438 40.6180019,121.601644 40.5058594,121.502197 C40.3937169,121.40275 40.2339691,121.31071 40.0266113,121.226074 C39.8192535,121.141438 39.546307,121.063151 39.2077637,120.991211 C38.8269024,120.910807 38.4841324,120.815593 38.1794434,120.705566 C37.8747543,120.59554 37.615561,120.463298 37.4018555,120.308838 C37.18815,120.154377 37.0241705,119.971355 36.9099121,119.759766 C36.7956537,119.548176 36.7385254,119.30062 36.7385254,119.01709 C36.7385254,118.746255 36.7988275,118.489178 36.9194336,118.24585 C37.0400397,118.002522 37.2103667,117.788819 37.4304199,117.604736 C37.6504731,117.420653 37.917072,117.274659 38.2302246,117.166748 C38.5433772,117.058837 38.8924948,117.004883 39.2775879,117.004883 C39.6880717,117.004883 40.0551742,117.060953 40.3789062,117.173096 C40.7026383,117.285238 40.9777007,117.438638 41.2041016,117.633301 C41.4305024,117.827963 41.6029454,118.055419 41.7214355,118.315674 C41.8399257,118.575929 41.8991699,118.854165 41.8991699,119.150391 L40.7185059,119.150391 C40.7185059,119.010741 40.6867679,118.870037 40.623291,118.728271 C40.5598141,118.586506 40.4667161,118.459555 40.3439941,118.347412 C40.2212722,118.23527 40.0710458,118.144287 39.8933105,118.074463 C39.7155753,118.004638 39.5103365,117.969727 39.2775879,117.969727 C39.032144,117.969727 38.8237313,117.998291 38.6523438,118.05542 C38.4809562,118.112549 38.3402512,118.18872 38.2302246,118.283936 C38.120198,118.379151 38.0397952,118.48706 37.9890137,118.607666 C37.9382322,118.728272 37.9128418,118.85205 37.9128418,118.979004 C37.9128418,119.105958 37.9340004,119.220214 37.9763184,119.321777 C38.0186363,119.42334 38.0990391,119.51538 38.2175293,119.5979 C38.3360195,119.68042 38.4978831,119.756591 38.703125,119.826416 C38.9083669,119.896241 39.1739079,119.967122 39.4997559,120.039062 C39.9187033,120.136394 40.2826319,120.246419 40.5915527,120.369141 C40.9004735,120.491863 41.1564931,120.634683 41.3596191,120.797607 C41.5627452,120.960531 41.7140295,121.147785 41.8134766,121.359375 C41.9129237,121.570965 41.9626465,121.816405 41.9626465,122.095703 C41.9626465,122.39616 41.9002285,122.671223 41.7753906,122.920898 C41.6505528,123.170574 41.4717622,123.384276 41.2390137,123.562012 C41.0062651,123.739747 40.726971,123.878336 40.401123,123.977783 C40.0752751,124.07723 39.7134623,124.126953 39.3156738,124.126953 C38.8586403,124.126953 38.4555682,124.063477 38.1064453,123.936523 C37.7573225,123.80957 37.4642753,123.641358 37.2272949,123.431885 C36.9903146,123.222411 36.8104661,122.983318 36.6877441,122.7146 C36.5650222,122.445881 36.5036621,122.169761 36.5036621,121.88623 L37.6779785,121.88623 C37.6906739,122.127443 37.7488602,122.329508 37.8525391,122.492432 C37.956218,122.655356 38.0863436,122.787597 38.2429199,122.88916 C38.3994962,122.990723 38.5708812,123.062663 38.7570801,123.10498 C38.9432789,123.147298 39.129475,123.168457 39.3156738,123.168457 C39.556886,123.168457 39.7684724,123.143067 39.9504395,123.092285 C40.1324065,123.041504 40.2858067,122.97168 40.4106445,122.882812 C40.5354824,122.793945 40.6296384,122.68921 40.6931152,122.568604 C40.7565921,122.447997 40.7883301,122.317872 40.7883301,122.178223 Z M46.3425293,124.126953 C45.8643368,124.126953 45.4316426,124.044434 45.0444336,123.879395 C44.6572246,123.714355 44.3260919,123.484783 44.0510254,123.190674 C43.7759589,122.896564 43.5643725,122.546389 43.4162598,122.140137 C43.268147,121.733885 43.1940918,121.289553 43.1940918,120.807129 L43.1940918,120.540527 C43.1940918,119.981931 43.2776684,119.482587 43.4448242,119.04248 C43.61198,118.602374 43.8352037,118.232098 44.114502,117.931641 C44.3938002,117.631183 44.7132957,117.401612 45.072998,117.24292 C45.4327004,117.084228 45.8072083,117.004883 46.1965332,117.004883 C46.6874211,117.004883 47.1105939,117.090575 47.4660645,117.261963 C47.821535,117.43335 48.1145822,117.669269 48.3452148,117.969727 C48.5758475,118.270184 48.7461746,118.625649 48.8562012,119.036133 C48.9662278,119.446617 49.0212402,119.893064 49.0212402,120.375488 L49.0212402,120.902344 L44.3684082,120.902344 C44.3768718,121.219728 44.4287105,121.515949 44.5239258,121.791016 C44.6191411,122.066082 44.7545564,122.305175 44.9301758,122.508301 C45.1057951,122.711427 45.3173816,122.872232 45.5649414,122.990723 C45.8125012,123.109213 46.0928533,123.168457 46.4060059,123.168457 C46.8207215,123.168457 47.1719549,123.083822 47.4597168,122.914551 C47.7474787,122.745279 47.9992665,122.520997 48.2150879,122.241699 L48.932373,122.800293 C48.8223465,122.969565 48.689047,123.133544 48.5324707,123.292236 C48.3758944,123.450929 48.1928721,123.592691 47.9833984,123.717529 C47.7739247,123.842367 47.5337741,123.941813 47.2629395,124.015869 C46.9921048,124.089926 46.6853044,124.126953 46.3425293,124.126953 Z M46.1965332,117.969727 C45.9595529,117.969727 45.7416188,118.013102 45.5427246,118.099854 C45.3438304,118.186605 45.1660978,118.312499 45.0095215,118.477539 C44.8529452,118.642579 44.7228195,118.847818 44.6191406,119.093262 C44.5154617,119.338706 44.4445803,119.620116 44.4064941,119.9375 L47.8469238,119.9375 L47.8469238,119.848633 C47.8342285,119.620116 47.7972008,119.393719 47.7358398,119.169434 C47.6744789,118.945149 47.579265,118.744142 47.4501953,118.566406 C47.3211257,118.388671 47.1550303,118.244792 46.9519043,118.134766 C46.7487783,118.024739 46.4969904,117.969727 46.1965332,117.969727 Z M53.1345215,123.168457 C53.3418793,123.168457 53.5407705,123.134603 53.7312012,123.066895 C53.9216318,122.999186 54.089843,122.906088 54.2358398,122.787598 C54.3818367,122.669107 54.5003251,122.528403 54.5913086,122.365479 C54.6822921,122.202555 54.7362467,122.02588 54.7531738,121.835449 L55.8640137,121.835449 C55.8470865,122.140138 55.7635099,122.43107 55.6132812,122.708252 C55.4630526,122.985434 55.2652193,123.228759 55.0197754,123.438232 C54.7743315,123.647706 54.4897477,123.814859 54.1660156,123.939697 C53.8422835,124.064535 53.4984556,124.126953 53.1345215,124.126953 C52.6182429,124.126953 52.1686217,124.034913 51.7856445,123.85083 C51.4026674,123.666747 51.0842298,123.418133 50.8303223,123.10498 C50.5764147,122.791828 50.3870449,122.427899 50.262207,122.013184 C50.1373692,121.598468 50.0749512,121.160484 50.0749512,120.699219 L50.0749512,120.432617 C50.0749512,119.971352 50.1373692,119.533368 50.262207,119.118652 C50.3870449,118.703937 50.5764147,118.340008 50.8303223,118.026855 C51.0842298,117.713703 51.4016094,117.465089 51.7824707,117.281006 C52.163332,117.096923 52.6118952,117.004883 53.1281738,117.004883 C53.5301941,117.004883 53.8951807,117.068359 54.2231445,117.195312 C54.5511084,117.322266 54.8346342,117.496825 55.0737305,117.718994 C55.3128267,117.941163 55.5000807,118.204588 55.635498,118.509277 C55.7709154,118.813966 55.8470865,119.141925 55.8640137,119.493164 L54.7531738,119.493164 C54.7362467,119.281574 54.6865239,119.083741 54.6040039,118.899658 C54.521484,118.715575 54.4104011,118.55477 54.270752,118.417236 C54.1311028,118.279703 53.9650075,118.170736 53.7724609,118.090332 C53.5799144,118.009928 53.3651542,117.969727 53.1281738,117.969727 C52.7642397,117.969727 52.4627291,118.041666 52.2236328,118.185547 C51.9845366,118.329428 51.7919929,118.518798 51.6459961,118.753662 C51.4999993,118.988527 51.3973799,119.25301 51.3381348,119.547119 C51.2788897,119.841229 51.2492676,120.136392 51.2492676,120.432617 L51.2492676,120.699219 C51.2492676,121.003908 51.2788897,121.303303 51.3381348,121.597412 C51.3973799,121.891522 51.4989413,122.154947 51.6428223,122.387695 C51.7867032,122.620444 51.9792468,122.808756 52.220459,122.952637 C52.4616711,123.096518 52.7663556,123.168457 53.1345215,123.168457 Z M56.873291,120.502441 C56.873291,120.00309 56.9462883,119.540774 57.0922852,119.115479 C57.238282,118.690183 57.4456367,118.320965 57.7143555,118.007812 C57.9830743,117.69466 58.3099753,117.44922 58.6950684,117.271484 C59.0801614,117.093749 59.5117977,117.004883 59.9899902,117.004883 C60.4766463,117.004883 60.9135723,117.093749 61.3007812,117.271484 C61.6879902,117.44922 62.0170071,117.69466 62.2878418,118.007812 C62.5586765,118.320965 62.7660312,118.690183 62.9099121,119.115479 C63.053793,119.540774 63.1257324,120.00309 63.1257324,120.502441 L63.1257324,120.64209 C63.1257324,121.141441 63.053793,121.603758 62.9099121,122.029053 C62.7660312,122.454348 62.5586765,122.822508 62.2878418,123.133545 C62.0170071,123.444582 61.6890481,123.687906 61.3039551,123.863525 C60.918862,124.039145 60.4851098,124.126953 60.0026855,124.126953 C59.5202613,124.126953 59.0865091,124.039145 58.701416,123.863525 C58.3163229,123.687906 57.988364,123.444582 57.7175293,123.133545 C57.4466946,122.822508 57.238282,122.454348 57.0922852,122.029053 C56.9462883,121.603758 56.873291,121.141441 56.873291,120.64209 L56.873291,120.502441 Z M58.0539551,120.64209 C58.0539551,120.984865 58.0941565,121.308592 58.1745605,121.613281 C58.2549646,121.91797 58.3766268,122.185627 58.5395508,122.41626 C58.7024748,122.646892 58.9055977,122.829915 59.1489258,122.965332 C59.3922538,123.100749 59.6768376,123.168457 60.0026855,123.168457 C60.3243017,123.168457 60.6078275,123.100749 60.8532715,122.965332 C61.0987154,122.829915 61.3018384,122.646892 61.4626465,122.41626 C61.6234546,122.185627 61.7451168,121.91797 61.8276367,121.613281 C61.9101567,121.308592 61.951416,120.984865 61.951416,120.64209 L61.951416,120.502441 C61.951416,120.163898 61.9101567,119.841229 61.8276367,119.534424 C61.7451168,119.227619 61.6223966,118.958904 61.4594727,118.728271 C61.2965487,118.497639 61.0923678,118.313559 60.8469238,118.176025 C60.6014799,118.038492 60.3158382,117.969727 59.9899902,117.969727 C59.668374,117.969727 59.3869641,118.038492 59.145752,118.176025 C58.9045398,118.313559 58.7024748,118.497639 58.5395508,118.728271 C58.3766268,118.958904 58.2549646,119.227619 58.1745605,119.534424 C58.0941565,119.841229 58.0539551,120.163898 58.0539551,120.502441 L58.0539551,120.64209 Z M65.7092285,117.131836 L65.7473145,117.995117 C65.9927584,117.686196 66.2889794,117.44393 66.6359863,117.268311 C66.9829933,117.092691 67.3723123,117.004883 67.8039551,117.004883 C68.1382666,117.004883 68.4408352,117.050374 68.7116699,117.141357 C68.9825046,117.232341 69.2131338,117.378336 69.4035645,117.579346 C69.5939951,117.780356 69.7410477,118.038491 69.8447266,118.35376 C69.9484055,118.669028 70.0002441,119.050942 70.0002441,119.499512 L70.0002441,124 L68.8259277,124 L68.8259277,119.486816 C68.8259277,119.220214 68.7963056,118.992758 68.7370605,118.804443 C68.6778155,118.616129 68.5900071,118.462728 68.4736328,118.344238 C68.3572585,118.225748 68.2133798,118.138998 68.0419922,118.083984 C67.8706046,118.028971 67.6727713,118.001465 67.4484863,118.001465 C67.067625,118.001465 66.7333185,118.103026 66.4455566,118.306152 C66.1577948,118.509278 65.9335132,118.775877 65.7727051,119.105957 L65.7727051,124 L64.5983887,124 L64.5983887,117.131836 L65.7092285,117.131836 Z M71.4855957,120.508789 C71.4855957,119.984047 71.5501296,119.506919 71.6791992,119.077393 C71.8082689,118.647866 71.9912911,118.279705 72.2282715,117.9729 C72.4652518,117.666095 72.7498356,117.428061 73.0820312,117.258789 C73.4142269,117.089517 73.7855611,117.004883 74.1960449,117.004883 C74.6149923,117.004883 74.9810368,117.075764 75.2941895,117.217529 C75.6073421,117.359294 75.8781727,117.563475 76.1066895,117.830078 L76.1066895,114.25 L77.2810059,114.25 L77.2810059,124 L76.2019043,124 L76.1447754,123.263672 C75.9162586,123.54297 75.6411963,123.756672 75.3195801,123.904785 C74.9979639,124.052898 74.6192242,124.126953 74.1833496,124.126953 C73.7813294,124.126953 73.4142269,124.040203 73.0820312,123.866699 C72.7498356,123.693196 72.4652518,123.450929 72.2282715,123.139893 C71.9912911,122.828856 71.8082689,122.460695 71.6791992,122.0354 C71.5501296,121.610105 71.4855957,121.145673 71.4855957,120.64209 L71.4855957,120.508789 Z M72.6599121,120.64209 C72.6599121,120.984865 72.6948239,121.307534 72.7646484,121.610107 C72.834473,121.912681 72.94344,122.176106 73.0915527,122.400391 C73.2396655,122.624676 73.4279774,122.802408 73.6564941,122.933594 C73.8850109,123.064779 74.1579574,123.130371 74.4753418,123.130371 C74.6826996,123.130371 74.8688957,123.106039 75.0339355,123.057373 C75.1989754,123.008707 75.3481439,122.939942 75.4814453,122.851074 C75.6147468,122.762207 75.7332352,122.656413 75.8369141,122.533691 C75.940593,122.410969 76.0305172,122.275554 76.1066895,122.127441 L76.1066895,118.972656 C76.0305172,118.833007 75.9416509,118.703939 75.8400879,118.585449 C75.7385249,118.466959 75.6210944,118.36434 75.487793,118.277588 C75.3544915,118.190836 75.2053231,118.123128 75.0402832,118.074463 C74.8752433,118.025797 74.6911631,118.001465 74.4880371,118.001465 C74.1664209,118.001465 73.8903006,118.068115 73.659668,118.201416 C73.4290353,118.334717 73.2396655,118.515624 73.0915527,118.744141 C72.94344,118.972657 72.834473,119.238198 72.7646484,119.540771 C72.6948239,119.843345 72.6599121,120.166014 72.6599121,120.508789 L72.6599121,120.64209 Z M83.1018066,122.178223 C83.1018066,122.051269 83.0827639,121.931723 83.0446777,121.81958 C83.0065916,121.707438 82.9314784,121.601644 82.8193359,121.502197 C82.7071934,121.40275 82.5474457,121.31071 82.3400879,121.226074 C82.1327301,121.141438 81.8597836,121.063151 81.5212402,120.991211 C81.140379,120.910807 80.7976089,120.815593 80.4929199,120.705566 C80.1882309,120.59554 79.9290375,120.463298 79.715332,120.308838 C79.5016265,120.154377 79.3376471,119.971355 79.2233887,119.759766 C79.1091303,119.548176 79.052002,119.30062 79.052002,119.01709 C79.052002,118.746255 79.1123041,118.489178 79.2329102,118.24585 C79.3535162,118.002522 79.5238433,117.788819 79.7438965,117.604736 C79.9639497,117.420653 80.2305486,117.274659 80.5437012,117.166748 C80.8568538,117.058837 81.2059714,117.004883 81.5910645,117.004883 C82.0015483,117.004883 82.3686507,117.060953 82.6923828,117.173096 C83.0161149,117.285238 83.2911773,117.438638 83.5175781,117.633301 C83.743979,117.827963 83.9164219,118.055419 84.0349121,118.315674 C84.1534023,118.575929 84.2126465,118.854165 84.2126465,119.150391 L83.0319824,119.150391 C83.0319824,119.010741 83.0002445,118.870037 82.9367676,118.728271 C82.8732907,118.586506 82.7801927,118.459555 82.6574707,118.347412 C82.5347487,118.23527 82.3845224,118.144287 82.2067871,118.074463 C82.0290518,118.004638 81.823813,117.969727 81.5910645,117.969727 C81.3456205,117.969727 81.1372079,117.998291 80.9658203,118.05542 C80.7944327,118.112549 80.6537278,118.18872 80.5437012,118.283936 C80.4336746,118.379151 80.3532717,118.48706 80.3024902,118.607666 C80.2517087,118.728272 80.2263184,118.85205 80.2263184,118.979004 C80.2263184,119.105958 80.247477,119.220214 80.2897949,119.321777 C80.3321128,119.42334 80.4125157,119.51538 80.5310059,119.5979 C80.649496,119.68042 80.8113597,119.756591 81.0166016,119.826416 C81.2218435,119.896241 81.4873844,119.967122 81.8132324,120.039062 C82.2321798,120.136394 82.5961085,120.246419 82.9050293,120.369141 C83.2139501,120.491863 83.4699697,120.634683 83.6730957,120.797607 C83.8762217,120.960531 84.027506,121.147785 84.1269531,121.359375 C84.2264002,121.570965 84.276123,121.816405 84.276123,122.095703 C84.276123,122.39616 84.2137051,122.671223 84.0888672,122.920898 C83.9640293,123.170574 83.7852388,123.384276 83.5524902,123.562012 C83.3197417,123.739747 83.0404476,123.878336 82.7145996,123.977783 C82.3887516,124.07723 82.0269388,124.126953 81.6291504,124.126953 C81.1721169,124.126953 80.7690447,124.063477 80.4199219,123.936523 C80.070799,123.80957 79.7777518,123.641358 79.5407715,123.431885 C79.3037911,123.222411 79.1239427,122.983318 79.0012207,122.7146 C78.8784987,122.445881 78.8171387,122.169761 78.8171387,121.88623 L79.9914551,121.88623 C80.0041505,122.127443 80.0623367,122.329508 80.1660156,122.492432 C80.2696945,122.655356 80.3998202,122.787597 80.5563965,122.88916 C80.7129728,122.990723 80.8843578,123.062663 81.0705566,123.10498 C81.2567555,123.147298 81.4429515,123.168457 81.6291504,123.168457 C81.8703625,123.168457 82.081949,123.143067 82.263916,123.092285 C82.4458831,123.041504 82.5992832,122.97168 82.7241211,122.882812 C82.848959,122.793945 82.9431149,122.68921 83.0065918,122.568604 C83.0700687,122.447997 83.1018066,122.317872 83.1018066,122.178223 Z" id="54-seconds" fill="#525252" opacity="0.400000006"></path>
                        <g id="player">
                            <circle id="bg" fill="#33CC33" cx="51" cy="51" r="51"></circle>
                            <polygon id="play$" fill="#FFFFFF" points="75 51 34 75 34 27"></polygon>
                        </g>
                    </g>
                </g>
            </g>
        </g>
    </g>
</svg>